<?xml version="1.0" encoding="UTF-8"?>
<!DOCTYPE svg PUBLIC "-//W3C//DTD SVG 1.1//EN" "http://www.w3.org/Graphics/SVG/1.1/DTD/svg11.dtd">
<svg xmlns="http://www.w3.org/2000/svg" version="1.1" width="1080px" height="260px" style="shape-rendering:geometricPrecision; text-rendering:geometricPrecision; image-rendering:optimizeQuality; fill-rule:evenodd; clip-rule:evenodd" xmlns:xlink="http://www.w3.org/1999/xlink">
<g><path style="opacity:0.979" fill="#ff7e00" d="M 183.5,-0.5 C 184.167,-0.5 184.833,-0.5 185.5,-0.5C 160.631,42.7371 135.631,85.9038 110.5,129C 135.241,171.815 160.241,214.482 185.5,257C 184.092,257.315 182.759,256.982 181.5,256C 120.953,213.946 60.2863,172.113 -0.5,130.5C -0.5,129.167 -0.5,127.833 -0.5,126.5C 61.389,84.9397 122.722,42.6064 183.5,-0.5 Z"/></g>
<g><path style="opacity:0.951" fill="#fefffe" d="M 1037.5,49.5 C 1038.5,49.5 1039.5,49.5 1040.5,49.5C 1040.33,89.1681 1040.5,128.835 1041,168.5C 1042.54,176.367 1047.38,180.034 1055.5,179.5C 1055.21,185.568 1054.38,191.568 1053,197.5C 1041.3,200.819 1030.97,198.152 1022,189.5C 1020.39,186.618 1019.06,183.618 1018,180.5C 1016.54,138.197 1016.04,95.8633 1016.5,53.5C 1023.68,52.4724 1030.68,51.1391 1037.5,49.5 Z"/></g>
<g><path style="opacity:0.952" fill="#fefffe" d="M 779.5,67.5 C 780.5,67.5 781.5,67.5 782.5,67.5C 782.5,77.5 782.5,87.5 782.5,97.5C 794.167,97.5 805.833,97.5 817.5,97.5C 817.5,104.167 817.5,110.833 817.5,117.5C 805.833,117.5 794.167,117.5 782.5,117.5C 782.333,133.503 782.5,149.503 783,165.5C 784.062,175.395 789.562,180.062 799.5,179.5C 805.759,179.315 811.759,177.982 817.5,175.5C 819.15,181.25 820.484,187.083 821.5,193C 821.245,194.326 820.578,195.326 819.5,196C 803.635,202.315 787.968,201.982 772.5,195C 764.198,188.231 759.698,179.398 759,168.5C 758.5,136.168 758.333,103.835 758.5,71.5C 765.683,70.4724 772.683,69.1391 779.5,67.5 Z"/></g>
<g><path style="opacity:0.954" fill="#fefffe" d="M 314.5,95.5 C 329.099,93.4169 342.432,96.4169 354.5,104.5C 372.471,93.6904 390.805,92.8571 409.5,102C 416.68,108.192 420.847,116.025 422,125.5C 423.379,149.475 423.879,173.475 423.5,197.5C 415.5,197.5 407.5,197.5 399.5,197.5C 399.894,175.47 399.394,153.47 398,131.5C 396.689,121.521 391.022,116.521 381,116.5C 375.527,116.66 370.36,117.993 365.5,120.5C 365.167,121.333 364.833,122.167 364.5,123C 365.093,126.151 365.593,129.318 366,132.5C 366.5,154.164 366.667,175.831 366.5,197.5C 358.5,197.5 350.5,197.5 342.5,197.5C 342.667,176.831 342.5,156.164 342,135.5C 341.545,129.798 339.711,124.631 336.5,120C 334.725,118.561 332.725,117.561 330.5,117C 323.482,116.435 316.482,116.601 309.5,117.5C 309.5,144.167 309.5,170.833 309.5,197.5C 301.5,197.5 293.5,197.5 285.5,197.5C 285.5,165.167 285.5,132.833 285.5,100.5C 295.275,98.7049 304.942,97.0382 314.5,95.5 Z"/></g>
<g><path style="opacity:0.943" fill="#fefffe" d="M 484.5,95.5 C 496.054,94.7552 507.387,95.9219 518.5,99C 520.18,99.3468 521.18,100.347 521.5,102C 520.052,108.292 518.219,114.459 516,120.5C 507.222,116.764 498.055,115.597 488.5,117C 477.555,120.958 471.388,128.791 470,140.5C 468.126,152.135 470.46,162.802 477,172.5C 485.502,178.736 495.002,180.902 505.5,179C 510.555,177.986 515.555,176.819 520.5,175.5C 520.96,181.924 521.96,188.257 523.5,194.5C 519.882,196.909 515.882,198.409 511.5,199C 463.412,204.912 441.579,183.745 446,135.5C 450.605,114.064 463.438,100.731 484.5,95.5 Z"/></g>
<g><path style="opacity:0.948" fill="#fefffe" d="M 572.5,95.5 C 589.204,92.9016 603.37,97.5682 615,109.5C 623.603,123.683 626.77,139.017 624.5,155.5C 602.833,155.5 581.167,155.5 559.5,155.5C 562.089,172.49 572.089,180.49 589.5,179.5C 598.335,179.389 606.835,177.723 615,174.5C 617.07,181.303 617.903,188.136 617.5,195C 598.916,201.774 580.249,202.108 561.5,196C 542.573,185.996 533.573,170.163 534.5,148.5C 534.199,121.185 546.865,103.519 572.5,95.5 Z M 576.5,115.5 C 591.406,114.9 599.739,122.066 601.5,137C 587.504,137.5 573.504,137.667 559.5,137.5C 560.738,126.611 566.405,119.278 576.5,115.5 Z"/></g>
<g><path style="opacity:0.955" fill="#fefffe" d="M 676.5,95.5 C 685.879,95.2244 695.212,95.7244 704.5,97C 722.16,102.115 731.327,113.949 732,132.5C 732.5,154.164 732.667,175.831 732.5,197.5C 724.5,197.5 716.5,197.5 708.5,197.5C 708.667,177.164 708.5,156.831 708,136.5C 708.109,126.637 703.609,120.137 694.5,117C 687.148,116.418 679.815,116.585 672.5,117.5C 672.5,144.167 672.5,170.833 672.5,197.5C 664.5,197.5 656.5,197.5 648.5,197.5C 648.5,165.167 648.5,132.833 648.5,100.5C 657.923,98.5976 667.257,96.931 676.5,95.5 Z"/></g>
<g><path style="opacity:0.952" fill="#fefffe" d="M 867.5,95.5 C 878.646,95.0631 889.646,96.0631 900.5,98.5C 899.97,105.829 898.303,112.829 895.5,119.5C 885.067,115.974 874.567,115.64 864,118.5C 863.5,144.831 863.333,171.165 863.5,197.5C 855.5,197.5 847.5,197.5 839.5,197.5C 839.333,165.832 839.5,134.165 840,102.5C 849.015,99.1218 858.181,96.7884 867.5,95.5 Z"/></g>
<g><path style="opacity:0.954" fill="#fefffe" d="M 935.5,95.5 C 945.557,95.1355 955.557,95.6355 965.5,97C 979.317,100.486 987.15,109.319 989,123.5C 989.667,147.5 989.667,171.5 989,195.5C 968.597,200.732 948.097,201.232 927.5,197C 912.543,189.924 906.376,178.09 909,161.5C 912.893,146.948 922.393,138.781 937.5,137C 947.194,136.275 956.86,136.441 966.5,137.5C 967.795,128.259 964.462,121.425 956.5,117C 944.627,114.714 932.961,115.547 921.5,119.5C 919.507,112.899 918.84,106.232 919.5,99.5C 924.924,98.0211 930.257,96.6878 935.5,95.5 Z M 947.5,153.5 C 953.826,153.126 959.993,153.793 966,155.5C 966.815,163.746 966.648,171.912 965.5,180C 958.167,180.667 950.833,180.667 943.5,180C 933.075,176.404 930.242,169.57 935,159.5C 938.653,156.237 942.819,154.237 947.5,153.5 Z"/></g>
<g><path style="opacity:0.945" fill="#fefffe" d="M 173.5,97.5 C 182.167,97.5 190.833,97.5 199.5,97.5C 205.3,121.699 212.8,145.366 222,168.5C 231.201,145.359 238.701,121.693 244.5,97.5C 252.833,97.5 261.167,97.5 269.5,97.5C 260.525,131.758 248.192,164.758 232.5,196.5C 228.833,196.833 225.167,197.167 221.5,197.5C 217.405,197.458 213.571,196.792 210,195.5C 194.969,163.908 182.803,131.242 173.5,97.5 Z"/></g>
</svg>
