<?xml version="1.0" encoding="UTF-8"?>
<!DOCTYPE svg PUBLIC "-//W3C//DTD SVG 1.1//EN" "http://www.w3.org/Graphics/SVG/1.1/DTD/svg11.dtd">
<svg xmlns="http://www.w3.org/2000/svg" version="1.1" width="1080px" height="280px" style="shape-rendering:geometricPrecision; text-rendering:geometricPrecision; image-rendering:optimizeQuality; fill-rule:evenodd; clip-rule:evenodd" xmlns:xlink="http://www.w3.org/1999/xlink">
<g><path style="opacity:0.952" fill="#000000" d="M 1032.5,44.5 C 1034.5,44.5 1036.5,44.5 1038.5,44.5C 1038.33,81.5015 1038.5,118.502 1039,155.5C 1039.69,158.196 1041.19,160.363 1043.5,162C 1046.66,162.859 1049.66,164.025 1052.5,165.5C 1051.18,171.106 1050.18,176.773 1049.5,182.5C 1038.66,183.421 1029.16,180.421 1021,173.5C 1019.11,170.382 1017.77,167.049 1017,163.5C 1016.5,124.835 1016.33,86.1681 1016.5,47.5C 1022.04,46.9131 1027.37,45.9131 1032.5,44.5 Z"/></g>
<g><path style="opacity:0.992" fill="#ff9100" d="M 127.5,45.5 C 130.325,45.0807 132.491,46.0807 134,48.5C 167.753,106.337 201.253,164.337 234.5,222.5C 233.926,224.059 233.26,225.559 232.5,227C 163.833,227.667 95.1667,227.667 26.5,227C 24.5561,224.847 24.0561,222.347 25,219.5C 57.9192,163.33 90.5859,106.997 123,50.5C 124.059,48.3408 125.559,46.6741 127.5,45.5 Z"/></g>
<g><path style="opacity:0.947" fill="#000000" d="M 798.5,60.5 C 800.472,69.4401 801.139,78.7734 800.5,88.5C 811.167,88.5 821.833,88.5 832.5,88.5C 832.5,94.8333 832.5,101.167 832.5,107.5C 821.833,107.5 811.167,107.5 800.5,107.5C 800.333,122.17 800.5,136.837 801,151.5C 802.244,160.578 807.41,164.578 816.5,163.5C 822.32,163.294 827.987,162.294 833.5,160.5C 834.177,165.879 835.177,171.213 836.5,176.5C 836.182,177.647 835.516,178.481 834.5,179C 819.659,185.21 804.992,184.877 790.5,178C 783.655,172.478 779.822,165.312 779,156.5C 778.167,125.828 778.333,95.1612 779.5,64.5C 785.976,63.2592 792.309,61.9259 798.5,60.5 Z"/></g>
<g><path style="opacity:0.946" fill="#000000" d="M 368.5,86.5 C 376.886,86.2133 385.219,86.7133 393.5,88C 398.38,89.3549 402.547,91.8549 406,95.5C 422.73,84.6254 439.897,83.7921 457.5,93C 465.201,100.087 469.034,108.92 469,119.5C 469.5,139.831 469.667,160.164 469.5,180.5C 462.167,180.5 454.833,180.5 447.5,180.5C 447.915,159.797 447.415,139.131 446,118.5C 444.694,110.001 439.694,105.667 431,105.5C 426.292,105.908 421.792,107.074 417.5,109C 416.422,109.674 415.755,110.674 415.5,112C 416.123,115.481 416.623,118.981 417,122.5C 417.5,141.83 417.667,161.164 417.5,180.5C 410.167,180.5 402.833,180.5 395.5,180.5C 395.667,162.83 395.5,145.164 395,127.5C 394.938,120.742 393.105,114.575 389.5,109C 381.846,105.204 373.846,104.37 365.5,106.5C 365.5,131.167 365.5,155.833 365.5,180.5C 357.833,180.5 350.167,180.5 342.5,180.5C 342.167,150.826 342.5,121.159 343.5,91.5C 351.896,89.4937 360.23,87.827 368.5,86.5 Z"/></g>
<g><path style="opacity:0.939" fill="#000000" d="M 525.5,86.5 C 536.399,85.7437 547.066,86.9103 557.5,90C 558.578,90.6739 559.245,91.6739 559.5,93C 558.526,98.7318 556.86,104.232 554.5,109.5C 543.368,104.105 532.368,104.271 521.5,110C 514.959,116.775 511.626,124.942 511.5,134.5C 512.196,158.035 524.196,167.535 547.5,163C 551.207,162.263 554.873,161.429 558.5,160.5C 559.669,166.504 560.502,172.504 561,178.5C 542.781,185.791 524.948,184.957 507.5,176C 494.457,165.567 488.457,151.901 489.5,135C 489.293,109.52 501.293,93.3532 525.5,86.5 Z"/></g>
<g><path style="opacity:0.949" fill="#000000" d="M 606.5,86.5 C 631.547,83.0895 647.38,93.4228 654,117.5C 655.223,125.453 655.723,133.453 655.5,141.5C 635.164,141.333 614.831,141.5 594.5,142C 595.87,151.414 600.87,158.08 609.5,162C 621.749,164.554 633.749,163.721 645.5,159.5C 647.791,165.558 649.124,171.892 649.5,178.5C 635.432,183.051 621.099,184.217 606.5,182C 587.55,178.05 576.383,166.55 573,147.5C 568.949,127.189 574.116,109.689 588.5,95C 594.208,91.3101 600.208,88.4768 606.5,86.5 Z M 612.5,104.5 C 625.816,105.15 632.816,112.15 633.5,125.5C 620.833,125.5 608.167,125.5 595.5,125.5C 596.444,114.566 602.111,107.566 612.5,104.5 Z"/></g>
<g><path style="opacity:0.94" fill="#000000" d="M 702.5,86.5 C 712.624,86.0058 722.624,86.8391 732.5,89C 746.436,94.6601 753.603,105.16 754,120.5C 754.5,140.497 754.667,160.497 754.5,180.5C 747.167,180.5 739.833,180.5 732.5,180.5C 732.667,162.164 732.5,143.83 732,125.5C 732.112,112.614 725.779,105.947 713,105.5C 708.521,106.164 704.021,106.498 699.5,106.5C 699.5,131.167 699.5,155.833 699.5,180.5C 691.833,180.5 684.167,180.5 676.5,180.5C 676.167,150.826 676.5,121.159 677.5,91.5C 685.896,89.4937 694.23,87.827 702.5,86.5 Z"/></g>
<g><path style="opacity:0.953" fill="#000000" d="M 878.5,86.5 C 889.155,85.7312 899.488,87.0645 909.5,90.5C 908.144,95.7802 906.977,101.114 906,106.5C 905.612,107.428 904.945,108.095 904,108.5C 894.255,105.027 884.422,104.694 874.5,107.5C 874.5,131.833 874.5,156.167 874.5,180.5C 867.167,180.5 859.833,180.5 852.5,180.5C 852.5,151.167 852.5,121.833 852.5,92.5C 861.19,90.0986 869.857,88.0986 878.5,86.5 Z"/></g>
<g><path style="opacity:0.947" fill="#000000" d="M 941.5,86.5 C 950.891,86.1473 960.225,86.6473 969.5,88C 982.455,92.0489 989.621,100.882 991,114.5C 991.667,135.833 991.667,157.167 991,178.5C 974.742,182.263 958.242,183.43 941.5,182C 922.093,178.039 913.926,166.206 917,146.5C 920.433,134.074 928.6,126.907 941.5,125C 951.211,122.987 960.877,123.154 970.5,125.5C 971.087,116.499 967.42,109.999 959.5,106C 948.662,104.908 937.995,105.741 927.5,108.5C 926.664,102.5 926.164,96.5003 926,90.5C 931.216,88.9623 936.383,87.629 941.5,86.5 Z M 949.5,140.5 C 956.543,140.28 963.543,140.614 970.5,141.5C 970.5,149.167 970.5,156.833 970.5,164.5C 961.695,166.316 953.028,165.816 944.5,163C 939.751,159.767 937.918,155.267 939,149.5C 941.052,144.736 944.552,141.736 949.5,140.5 Z"/></g>
<g><path style="opacity:0.943" fill="#000000" d="M 239.5,88.5 C 247.5,88.5 255.5,88.5 263.5,88.5C 268.658,110.474 275.658,131.807 284.5,152.5C 292.496,131.845 299.496,110.845 305.5,89.5C 313.167,88.1667 320.833,88.1667 328.5,89.5C 319.128,120.621 307.795,150.954 294.5,180.5C 287.578,180.812 280.744,180.479 274,179.5C 259.835,150.172 248.335,119.839 239.5,88.5 Z"/></g>
</svg>
